# xmcd
#
# Track frame offsets: 
#        150
#        14442
#        27233
#        39943
#        52928
#        66821
#        77090
#        87867
#        100465
#        107589
#        117417
#        130663
#        142645
#        156287
#        167408
#        179230
#        200544
#        212528
#        223909
#        243731
#        254803
#        267822
#        280362
#        293692
#        315009
#        325350
#        335814
#        344377
#
# Disc length: 4764 seconds
#
# Revision: 0
# Processed by: cddbd v1.5.2PL0 Copyright (c) Steve Scherf et al.
# Submitted via: ExactAudioCopy v0.99pb1
#
DISCID=a1129a1c
DTITLE=John Mayall and The Bluesbreakers - A Hard Road
DYEAR=1967
DGENRE=Blues-Rock
TTITLE0=A Hard Road
TTITLE1=It's Over
TTITLE2=You Don't Love Me (Willie Cobbs)
TTITLE3=The Stumble (Freddie King/Sonny Thompson)
TTITLE4=Another Kinda Love
TTITLE5=Hit The Highway
TTITLE6=Leaping Christine
TTITLE7=Dust My Blues (Elmore James/Joe Josea)
TTITLE8=There's Always Work
TTITLE9=The Same Way (Peter Green)
TTITLE10=The Supernatural (Green)
TTITLE11=Top Of The Hill
TTITLE12=Someday After A While (You'll Be Sorry) (King/Thompson)
TTITLE13=Living Alone
TTITLE14=Looking Back (Watson) [Bonus]
TTITLE15=So Many Roads (Paul)  [Bonus]
TTITLE16=Mama, Talk To Your Daughter(Atkins, Lenoir)  [Bonus]
TTITLE17=Alabama Blues ( Lenoir)  [Bonus]
TTITLE18=All My Life  [Bonus]
TTITLE19=Ridin' On The L And N (Burley, Hampton)  [Bonus]
TTITLE20=Eagle Eye  [Bonus]
TTITLE21=Little By Little  [Bonus]
TTITLE22=Sitting In The Rain  [Bonus]
TTITLE23=Out Of Reach (Green)  [Bonus]
TTITLE24=No More Tears  [Bonus]
TTITLE25=Ridin' On The L And N (Burley, Hampton)  [Bonus]
TTITLE26=Sitting In The Rain  [Bonus]
TTITLE27=Leaping Christine  [Bonus]
EXTD=
EXTT0=
EXTT1=
EXTT2=
EXTT3=
EXTT4=
EXTT5=
EXTT6=
EXTT7=
EXTT8=
EXTT9=
EXTT10=
EXTT11=
EXTT12=
EXTT13=
EXTT14=
EXTT15=
EXTT16=
EXTT17=
EXTT18=
EXTT19=
EXTT20=
EXTT21=
EXTT22=
EXTT23=
EXTT24=
EXTT25=
EXTT26=
EXTT27=
PLAYORDER=
